<?xml version='1.0' encoding='utf-8'?>
<svg xmlns="http://www.w3.org/2000/svg" id="Layer_2" data-name="Layer 2" viewBox="0 0 903.57 1481.22">
  <g id="Layer_1-2" data-name="Layer 1">
    <g>
      <rect width="903.57" height="1481.22" rx="73.79" ry="73.79" fill="#fff" />
      <rect x="48.59" y="54.64" width="806.39" height="1371.93" rx="67.09" ry="67.09" fill="#ddd6ca" stroke="#000" stroke-miterlimit="10" stroke-width="8" />
      <path d="M596.44,921.11c-9.18,8.17-24.47,16.33-35.94,20.77-2.78,1.08-7.33,1.69-9.43,2.7-3.57,1.7-11.1,10.78-17.83,14.27-25.05,12.96-57.14,15.58-82.41,1.83-18.54,8.19-39.27,13.16-58.86,5.27-1.78-.72-3.08-2.27-4.85-2.99-9.46-3.86-19.95-4.33-28.61-11.33-2.08-1.68-4.52-5.63-6.29-6.73-3.06-1.91-12.31-3.57-16.59-5.34-13.44-5.57-33.14-20.84-42.06-32.3-2.73-3.51-4.7-8.46-7.61-11.48-4.82-5.01-13.28-9.65-18.5-15.03-8.85-9.12-18.91-27.39-21.56-39.79-.6-2.8-.1-6.77-1.08-9.62-1.92-5.65-9.25-14.59-12.06-21.47-4.71-11.53-8.45-29.09-8.47-41.49,0-4.77,2.19-12.57,1.94-16.33-.27-4.19-3.57-11.32-4.04-16.51-1.05-11.67.63-28.51,3.59-39.9,1.47-5.66,6.94-15.6,7.42-20.27.2-1.98-.57-4.46-.31-6.87,1.74-15.97,10.31-36.93,20.38-49.53,2.88-3.6,8.76-7.48,10.9-10.51,2.27-3.22,4.62-11.52,6.96-15.87,10.62-19.77,25.29-26.66,42.32-39,10.65-7.72,20.08-17.32,32.32-21.91,7.79-2.92,11.93-1.76,18.72-6.91,18.63-14.11,44.45-17.39,66.14-8.37,4.7,1.96,17.72,12.12,20.84,11.91,4.25-.28,15.82-9.09,20.84-11.31,20.7-9.12,46.06-7.29,64.69,5.73,1.95,1.37,3.76,4.18,5.66,5.04,2.5,1.12,6.75,1.29,9.82,2.3,13.09,4.34,23.22,14.49,33.98,22.37,17.66,12.94,34.09,19.13,45.55,40.06,4.05,7.41,4.52,12.72,10.01,19.24,14.77,17.55,25.57,34.01,28.76,57.5,1.49,10.94,2.07,11.25,5.29,21.15,3.4,10.48,6.45,33.57,5.42,44.34-.51,5.32-3.48,11.91-3.79,16.74-.27,4.27,1.83,11.35,1.8,16.16-.09,15.85-5.23,36.87-12.78,50.77-1.95,3.58-6.2,8.62-7.41,11.85-1.13,3.01-.85,6.24-1.59,9.11-4.12,15.95-13.99,34.63-26.45,45.6-3.99,3.51-11.23,7.45-14.6,11.08-2.92,3.14-5.31,8.92-8.58,12.82-2.7,3.21-8.6,9.55-11.65,12.25ZM376.98,525.44c19.27.82,34.76,13.72,47.54,27.04l22.36-18.12c-16.77-12.45-34.46-19.9-55.65-15-4.41,1.02-10.9,3.06-14.24,6.08ZM526.06,524.03c-11.7-4.5-22.32-7.76-34.99-5.4-31.2,5.83-50.76,33.18-74.93,51.34-7.67,5.76-17.97,10.22-24.86,15.8-.83.68-1.72,1.16-1.47,2.45,7.23,1.32,14.28,3.84,21.75,3.56,22.42-.84,49.7-18.52,64.22-34.93,3.49-3.94,6.33-8.68,9.64-12.47,5.85-6.7,22.67-16.53,31.33-18.6l9.3-1.74ZM388.39,536.16c-8.42-1.75-15.7-4.54-24.53-3.5-6.12.72-20.92,7.38-26.21,10.89-14.06,9.33-21.83,27.35-25.58,43.25l26.02-19.28c12.78-13.51,26.23-22.86,43.74-29.02,2.16-.76,5.43-.35,6.57-2.34ZM590.26,587.51c.15-1.25-.03-2.36-.34-3.57-6.7-25.81-26.01-49.38-54.23-51.34-3.21-.22-20.72,1.82-22.46,3.56-1.19,1.19.21,1.21,1.06,1.41,11.6,2.64,25.2,8.76,34.36,16.67,2.92,2.52,6.06,6.39,9.19,9l32.43,24.27ZM551.19,565.24c-.65-.7-1.35-1.34-2.05-1.92-1.68-1.39-3.36-2.79-5.05-4.18-4.1-3.39-8.39-6.92-13.07-9.48-4.06-2.22-8.28-3.93-12.63-5.49-11.09-3.97-13.83-6.03-23.94,1.38-2.37,1.74-8.99,7.63-9.75,10.23-.59,2.01,5.37,3.32,6.5,3.63,1.65.45,3.32.8,4.99,1.16,1.9.41,3.52,1.4,5.41,1.92,10.42,2.91,21.18,4.37,31.92,5.41,3.45.34,6.9.63,10.36.92.99.08,9.84.29,10,.84-.48-1.65-1.5-3.14-2.7-4.43ZM345.59,570.38c25.1-2.08,51.5-3.56,74.17-15.33-4.03-3.76-12.84-13.27-18.16-13.93-7.91-.97-27.02,5.94-34.12,10.14-8.43,4.99-14.68,12.67-21.9,19.11ZM629.48,637.34c3.03-9.32,4.69-19.73,1.96-29.3-4.69-16.47-21.36-33.05-35.24-42.51-3.24-2.2-6.69-4.12-10.2-5.84-.78,1.01,3,6.51,3.68,8.08,4.07,9.38,6.7,19.31,10.58,28.76,1.97,4.81,4.23,9.54,7.16,13.85,3.04,4.47,6.96,7.62,10.47,11.65,2.45,2.81,4.47,5.96,6.49,9.1,1.55,2.42,2.79,4.55,5.11,6.21ZM315.63,561.12c-7.77,2.82-15.22,8.36-21.41,13.89-18.31,16.36-30.74,38.51-19.95,63.14l6.83-12.06c6.66-8.25,15-16.26,19.92-25.73,6.44-12.39,7.19-27.32,14.61-39.24ZM480.36,563.73c-.59-.36-1.25-.59-1.91-.43-1.88.46-4.22,3.67-5.72,4.96-2.07,1.78-4.15,3.55-6.22,5.33-2.49,2.13-4.91,4.42-7.5,6.42-1.51,1.17,2.04,3.05,2.94,3.5,5.67,2.87,11.97,4.73,18.13,6.19,6.99,1.65,13.3,2.53,20.5,1.51,2.87-.41,5.72-.96,8.54-1.6,1.41-.32,4.54-1.08,5.54-2.12,1.11-1.14-.46-1.25-.93-1.58-10.8-7.48-22.56-13.51-32.79-21.78-.18-.14-.37-.28-.57-.41ZM409.79,565.4c-8.18,1.92-16.04,5.71-24.23,7.51-23.49,5.16-53.68.02-70.65,21.37-.44.56-3.87,5.8-3.56,6.06,8.26-.61,16.43-2.48,24.62-3.55,2.46-.32,5.16.2,7.74-.1,16.92-2,50.03-19.11,64.17-29.28.72-.52,1.72-1.06,1.91-2.01ZM590.98,599.63l-5.39-7.8c-15.53-17.26-40.26-14.75-60.95-17.53-8.86-1.19-18.12-4.9-27.1-6.05l27.08,16.08c6.48,2.26,12.44,5.94,18.91,8.2,15.41,5.37,31.47,4.79,47.46,7.1ZM562.25,604.83c-14.18-1.64-26.41-9.17-39.39-14.41-22.94,12.41-49.15,9.31-70.04-5.62-20.41,12.11-42.45,17.81-65.51,9.15-2.14-.8-4.74-2.94-6.04-3.3-2.8-.78-15.32,6.58-19.08,8.11-6.67,2.72-13.63,4.72-20.69,6.06-8.79,18.55-19.8,37.01-36.88,49.07-2.98,22.79-7.82,44.65-18.22,65.3,2.52,14.74,5.87,29.8,5.63,44.8-.07,4.37-2.11,12.44-1.2,16.34.73,3.13,11.13,17.69,13.52,22.14,1.85,3.44,4.28,7.86,5.71,11.41,4.48,11.12,2.43,16.97,11.99,25.82,7.25,6.71,17.13,12.49,23.93,19.58,5.9,6.15,10.41,14.61,16.05,21.04,5.49,2.82,12.23,2.24,17.99,3.41,18.54,3.78,36.8,9.72,52.83,19.93,2.65,1.69,15.9,13.38,16.94,13.12,5.1-3.1,9.15-7.58,14-10.98,22.09-15.49,50-21.55,76.35-25.31,7.01-11.1,15.42-20.7,25.54-29.03,5.03-4.13,19.12-12.78,21.74-17.49,2.34-4.21,3.21-11.52,4.97-16.43,4.89-13.61,13.12-25.69,20.54-37.95-2.13-20.96.82-40.57,4.3-61.03-5.61-12.67-10.85-26.26-13.6-39.89-1.12-5.54-1.6-20.06-3.78-24.07-.93-1.72-6.67-5.39-8.53-7.16-13.27-12.64-21.12-26.25-29.07-42.62ZM333.46,604.63c-1.19-1.18-21.57,4.51-24.63,5.69-10.11,3.89-17.53,11.85-23.46,20.77-7.08,10.65-9.55,22.64-12.54,34.89,16.86-9.97,34.59-19.89,46.23-36.16,2.74-3.84,4.56-7.7,6.97-11.58,1.31-2.12,9.22-11.85,7.43-13.61ZM630.21,665.98c-2.49-5.04-1.84-11.22-3.02-16.59-2.19-9.99-16.87-30.99-25.56-36.5-4.06-2.58-21.14-7.17-26.1-7.46-1.99-.12-3.36.01-5.24.65,6.91,10.48,12.64,23.41,21.38,32.47,10.93,11.33,25.85,18.59,38.53,27.45ZM650.91,705.21c.94-.35,1.92-1.37,2.43-2.2,2.44-3.99,8.87-15.82,10.03-19.93,5.64-19.99-10.74-49.62-23.87-64.18-4.52,18.58-5.75,37.2,1.4,55.3,1.37,3.48,3.94,7.39,5.36,11.05,2.47,6.38,4.22,13.09,4.66,19.96ZM262.83,619.61c-1.13-1.08-1.32.58-1.62.91-13.92,15.61-27.28,44.25-19.79,65.09.82,2.27,9.4,19.06,10.37,19.6,1.4.78.97-1.28,1.08-1.75,4.61-21.07,16.99-38.99,14.95-61.36-.22-2.44-4.16-21.68-4.99-22.48ZM259.99,739.45c2.61-2.94,3.86-6.44,6.43-9.61,2.86-3.52,6.99-6.53,9.94-10.03,13.98-16.59,17.72-41.61,21.41-62.4-12.71,9.32-27.45,14.93-34.36,30.19-3.36,7.42-6.86,24.15-6.86,32.23,0,6.47,3.1,13.17,3.43,19.62ZM643.05,739.45c.13-5.39,2.95-10.93,3.5-16.13.91-8.55-2.17-27.5-5.82-35.4-6.94-15-20.8-20.57-33.33-29.79,3.09,19.77,6.05,44.56,18.96,60.58,3.14,3.89,7.21,7.1,10.26,11.14,2.37,3.12,4.12,6.49,6.43,9.61ZM255.7,780.82c-2.32-7.79-2.07-15.89-2.17-23.92-.25-19.99-1.67-34.55-10.32-53.1l-8.9-14.99c-4.96,20.61-9.94,44.37-.62,64.45,4.55,9.81,13.32,18.43,20.38,26.66.44.51-.02,1.35,1.63.9ZM648.06,781.54c6.22-6.93,13.78-13.58,18.83-21.47,12.61-19.68,7.57-48.48,1.84-69.84l-5.11,8.08c-7.68,14.62-13.78,30.4-14.17,47.17-.17,7.09,1.56,14.65,1.48,21.39-.05,4.37-2.29,10.22-2.87,14.66ZM280.67,725.19c-1.15-.26-1.46.4-2.16,1.05-17.09,15.84-24.23,36.46-15.49,59.05,1.06,2.73,10.37,21.43,11.6,21.93,1.39.56.99-.88,1.24-1.57,9.15-25.08,10.93-38,7.66-65.12-.62-5.17-1.84-10.25-2.85-15.34ZM630.21,807.93c4.53-11,11.4-21.32,13.48-33.26,3.42-19.72-6.02-36.37-19.88-49.49-.88.68-4.07,19.27-4.28,21.77-1.15,14.14-1.19,28.54,2.65,42.26,1.17,4.17,3.8,12.96,5.53,16.58.54,1.13.91,2.4,2.49,2.13ZM280.67,844.31c.08-2.24-2.12-3.45-2.99-5.2-8.87-17.83-6.73-29.66-21.28-47.2-8.3-10.01-18.18-18.95-25.65-29.62-.04,20.52,5.39,42.84,16.54,60.14,7.78,12.07,20.39,17.03,33.39,21.89ZM623.09,845.03c14.61-7.06,27.8-12.01,36.24-26.88,9.51-16.76,13.18-36.03,13.68-55.15-1.84,1.96-2.57,4.47-4.29,6.76-14.6,19.45-36.26,32.23-39.19,59.97l-6.44,15.31ZM615.94,788.68c-1.27-.28-1.41.38-2.02,1.18-1.8,2.36-5.23,9.27-6.91,12.35-5.14,9.43-10.06,19.21-12.27,29.81l-6.61,42.25,4.97-6.79c14.99-13.3,28.08-24.84,29.26-46.36.66-12.02-3.79-21.06-6.42-32.45ZM289.22,790.1c-1.32-1.24-2.6,3.23-2.86,3.91-4.09,11.01-6.66,26.62-3.74,38.01,4.88,19.01,21.51,29.62,33.71,43.68-1.21-4.99-3.12-9.73-4.08-14.82-2.16-11.45-1.59-23.6-4.99-34.96-3.79-12.66-12.48-23.98-18.04-35.82ZM323.47,894.96c-7.45-11.68-17.5-22.5-27.81-31.75-2.74-2.46-6.4-5.65-9.35-7.78-9.68-7-22.27-9.85-33.1-14.69,5.05,19.23,19.09,39.99,36.97,49.35,3.3,1.73,10.88,4.87,14.39,4.87h18.9ZM650.19,840.75c-14.07,5.27-27.62,9.98-39.57,19.28-13.13,10.22-22.62,22.41-32.48,35.64,8.89-1.32,17.96.24,26.71-2.17,22.87-6.3,38.28-31.61,45.33-52.74ZM381.97,920.64c-18.22-18.45-26.97-44.35-46.36-61.71-5.84-5.23-12.75-9.33-18.55-14.61,3.46,22.53,5.33,47.74,28.05,59.33l36.86,16.99ZM517.51,921.35c20.76-9.77,48.26-15.81,59.48-37.89,5.85-11.51,7.14-25.81,9-38.43-14.41,9.26-26.35,19.2-36.24,33.3-4.59,6.54-8.01,13.63-12.69,20.13-5.73,7.96-12.89,15.71-19.54,22.89ZM406.58,963.45c3.1.79,13.75,0,17.83,0,12.68,0,32.36-16.11,43.39-22.24,9.5-5.27,20.31-8.55,29.74-13.77,13.59-7.53,23.6-20.36,33.49-32.14.93-1.1,5.95-6.83,3.22-6.78-22.29.36-51.06,12.31-69.05,25.13-19.97,14.22-33.53,36.71-57.05,47.82-.83.39-1.74.55-2.65.56-.21.2.8,1.35,1.07,1.42ZM366.28,889.26c-.24,1.07.4,1.56.85,2.36,14.69,25.96,34.57,42.45,65.93,39.09.91-.1,1.78.48,2.69.46l8.93-9.46c-20.92-19.72-49.74-30.73-78.39-32.45ZM387.67,929.93c-23.8-7.84-46.08-24.18-71.07-27.74-7.09-1.01-14.62-.43-21.67-2.94,7.04,7.82,15.15,15.4,23.6,21.69,22.93,17.06,39.7,21.07,67.31,10.37.74-.29,1.72-.29,1.82-1.38ZM607.39,899.25c-8.42,2.25-17.14,2.31-25.7,3.9-17.98,3.33-33.04,13.08-49.44,20.47-1.34.6-17.35,6.19-16.17,7.71,11.66,3.17,22.98,6.85,35.3,5.7,20.31-1.89,43.66-22.52,56.01-37.79ZM429.76,937.05c-10.13,2.63-19.32-2.17-29.59-1.42-12.88.95-25.49,8.59-38.53,8.55-1.92.22,2.91,3.62,3.74,4.11,20.99,12.32,41.26,11.88,59.01-5.55l5.36-5.69ZM543.18,944.19c-11.59.74-21.57-4.82-32.77-6.82-3.46-.62-9.74-1.68-13.04-1.55-8.98.35-32.68,13.4-39.59,19.58-.33.3-1.99.49-.91,1.62s17.86,5.12,20.54,5.51c22.4,3.29,42.41-3.07,61.45-14.46l4.32-3.87Z" />
    </g>
  </g>
</svg>